<?xml version="1.0" encoding="UTF-8" standalone="no"?>
<!-- Created with Inkscape (http://www.inkscape.org/) -->

<svg
   width="92.69886mm"
   height="90.622192mm"
   viewBox="0 0 92.69886 90.622192"
   version="1.1"
   id="svg1"
   xml:space="preserve"
   xmlns="http://www.w3.org/2000/svg"
   xmlns:svg="http://www.w3.org/2000/svg"><defs
     id="defs1" /><g
     id="layer1"
     transform="translate(-552.04335,-29.349952)"><path
       id="path15"
       style="fill:#a6a6a6;fill-opacity:0.94902;stroke:none;stroke-width:2.11075;stroke-opacity:1"
       d="m 596.37254,30.230745 -43.47958,46.810639 a 3.1783275,3.1783275 89.841929 0 0 0.012,4.33888 l 3.67461,3.91262 a 2.7651047,2.7651047 179.76471 0 0 4.04661,-0.01662 l 35.75227,-38.699994 a 2.7424237,2.7424237 180 0 1 4.02876,0 l 35.75228,38.699994 a 2.7651033,2.7651033 0.23527274 0 0 4.0466,0.01662 l 3.67462,-3.912616 a 3.1783406,3.1783406 90.158152 0 0 0.012,-4.338889 L 630.71072,62.849454 V 43.329437 a 2.968533,2.968533 45 0 0 -2.96853,-2.968533 h -4.44783 a 2.968533,2.968533 135 0 0 -2.96853,2.968533 l 0,8.339817 -19.91278,-21.438501 a 2.7572814,2.7572814 1.0933727e-4 0 0 -4.04051,-8e-6 z m 33.01314,59.201679 -29.03863,-31.3766 a 2.7473377,2.7473377 180 0 0 -4.03266,0 l -29.03862,31.3766 a 7.5779482,7.5779482 111.39192 0 0 -2.01633,5.147203 v 32.737993 a 2.968533,2.968533 45 0 0 2.96853,2.96853 h 16.19289 a 2.9685321,2.9685321 134.99999 0 0 2.96853,-2.96853 l -1e-5,-25.35684 a 2.9685321,2.9685321 134.99999 0 1 2.96853,-2.968537 h 15.94557 a 2.9685339,2.9685339 44.999991 0 1 2.96853,2.968537 l 10e-6,25.35684 a 2.9685339,2.9685339 44.999991 0 0 2.96853,2.96853 h 16.19288 a 2.9685368,2.9685368 135.00004 0 0 2.96853,-2.96853 l 5e-5,-32.737993 a 7.577932,7.577932 68.608111 0 0 -2.01633,-5.147203 z"
       transform="matrix(1,0,0,0.89781656,0,2.9990785)" /></g></svg>
