<?xml version="1.0" encoding="UTF-8" standalone="no"?>
<!-- Created with Inkscape (http://www.inkscape.org/) -->

<svg
   width="39.6875mm"
   height="27.032309mm"
   viewBox="0 0 39.6875 27.032309"
   version="1.1"
   id="svg1"
   xml:space="preserve"
   xmlns="http://www.w3.org/2000/svg"
   xmlns:svg="http://www.w3.org/2000/svg"><defs
     id="defs1" /><g
     id="layer1"
     transform="translate(-407.87263,65.933603)"><g
       id="path2-5"
       transform="matrix(1.3753891,0,0,1.3753891,142.35,-115.70012)"
       style="stroke-width:0.727067"><rect
         style="fill:#ffffff;stroke:none;stroke-width:0.290827"
         id="rect39"
         width="27.874939"
         height="18.585243"
         x="193.47849"
         y="36.710541"
         ry="0" /><path
         style="color:#000000;fill:#a6a6a6;fill-opacity:0.94902;stroke-width:0.727067;-inkscape-stroke:none"
         d="m 193.05273,37.391331 v 17.238823 a 1.2077373,1.2077373 45 0 0 1.20774,1.207737 h 26.43999 a 1.2077373,1.2077373 135 0 0 1.20774,-1.207737 V 37.391331 a 1.2077373,1.2077373 45 0 0 -1.20774,-1.207737 h -26.43999 a 1.2077373,1.2077373 135 0 0 -1.20774,1.207737 z m 1.90696,-0.508519 h 25.04155 a 1.2077373,1.2077373 45 0 1 1.20774,1.207737 v 15.840386 a 1.2077373,1.2077373 135 0 1 -1.20774,1.207737 h -25.04155 a 1.2077373,1.2077373 45 0 1 -1.20774,-1.207737 V 38.090549 a 1.2077373,1.2077373 135 0 1 1.20774,-1.207737 z"
         id="rect13-1" /><path
         id="path14-7"
         style="color:#000000;fill:#a6a6a6;fill-opacity:0.94902;stroke-width:0.727067;-inkscape-stroke:none"
         d="m 204.01132,46.52946 -10.81381,7.823811 0.40979,0.568441 11.00192,-7.959721 z m 6.93808,0 -0.5979,0.432531 11.00191,7.959721 0.41031,-0.568441 z" /><g
         id="path13-8"
         style="stroke-width:0.727067"><path
           style="color:#000000;fill:#ffffff;stroke-width:0.727067;-inkscape-stroke:none"
           d="m 193.40193,38.853422 14.07846,10.185259 14.07847,-10.185259"
           id="path16-2" /><path
           style="color:#000000;fill:#a6a6a6;fill-opacity:0.94902;stroke-width:0.727067;-inkscape-stroke:none"
           d="m 193.60742,38.570312 -0.41015,0.566407 13.51816,9.780474 a 1.3051382,1.3051382 0 0 0 1.53008,0 l 13.51816,-9.780474 -0.41015,-0.566407 -13.10801,9.483605 a 1.3051548,1.3051548 180 0 1 -1.53008,0 z"
           id="path17-5" /></g></g></g></svg>
