<?xml version="1.0" encoding="UTF-8" standalone="no"?>
<!-- Created with Inkscape (http://www.inkscape.org/) -->

<svg
   width="62.729954mm"
   height="86.081642mm"
   viewBox="0 0 62.729954 86.081642"
   version="1.1"
   id="svg1"
   xml:space="preserve"
   xmlns="http://www.w3.org/2000/svg"
   xmlns:svg="http://www.w3.org/2000/svg"><defs
     id="defs1" /><g
     id="layer1"
     transform="translate(-401.14131,-24.46633)"><g
       id="g50"><path
         id="rect50"
         style="fill:#d8aa73;fill-opacity:1;stroke-width:0.4"
         d="m 456.66578,27.430612 c 4.6144,-3.9214 8.05382,-3.176704 6.29872,2.732879 -4.60003,13.662707 -13.1772,25.91847 -21.02157,38.028004 -7.70352,1.346392 -9.06821,-2.263031 -10.04005,-6.179591 6.88368,-11.460409 15.06177,-24.776996 24.7629,-34.581292 z" /><path
         id="rect42"
         style="fill:#e9d1b2;fill-opacity:1;stroke-width:0.4"
         d="m 431.90288,62.011904 c 1.59476,3.342588 4.43416,5.773875 10.04005,6.179591 -4.4968,6.631363 -9.31456,12.994236 -15.3023,18.378357 l -4.89481,-2.910419 c 2.37896,-8.003673 6.46523,-14.671265 10.15706,-21.647529 z" /><path
         style="fill:#deb889;fill-opacity:1;stroke:none;stroke-width:0.4"
         d="m 410.89791,101.05579 c -2.44739,7.8052 -8.46666,8.20208 -8.46666,8.20208 0,0 6.21771,3.175 13.16302,-2.05052 12.23401,-9.204633 11.04636,-20.637498 11.04636,-20.637498 l -4.8948,-2.910419 c -12.83229,6.416145 -8.40052,9.591146 -10.84792,17.396357 z"
         id="path44" /><path
         style="fill:#ca9766;fill-opacity:1;stroke:none;stroke-width:0.4"
         d="m 411.59244,101.43463 2.98786,-1.75286 -0.39163,2.48047 1.68672,-2.01745 0.26458,3.65456 2.96002,-2.05052 -0.27475,2.69405 c 8.78037,-8.583696 7.81539,-17.873028 7.81539,-17.873028 l -4.8948,-2.910419 c -11.91155,5.955773 -8.94762,9.118833 -10.42079,15.795526 z"
         id="path49" /><path
         style="fill:#bd7c43;fill-opacity:1;stroke:none;stroke-width:0.4"
         d="m 418.47161,87.510936 0.0992,3.869532 3.73724,-1.91823 -0.56227,3.439584 3.00966,-2.414323 0.50641,4.254771 c 1.74039,-4.691359 1.37878,-8.172418 1.37878,-8.172418 l -4.8948,-2.910419 c -3.05992,1.52996 -5.1382,2.875627 -6.57808,4.157933 z"
         id="path48" /><path
         style="display:inline;fill:none;fill-opacity:1;stroke:#ababab;stroke-width:0.7;stroke-dasharray:none;stroke-opacity:1"
         d="m 410.89791,101.05579 c -2.44739,7.8052 -8.46666,8.20208 -8.46666,8.20208 0,0 6.21771,3.175 13.16302,-2.05052 12.23401,-9.204633 11.04636,-20.637498 11.04636,-20.637498 0,0 4.74474,-3.064311 15.3023,-18.378357 1.65605,-2.402154 3.4624,-5.101071 5.40135,-8.146123 20.86926,-32.774408 15.88728,-34.421602 15.08124,-34.925 -0.80604,-0.503398 -5.33468,-3.686359 -26.2599,29.83177 -1.57831,2.528147 -2.99875,4.877376 -4.26274,7.059762 -8.4927,14.663447 -10.15705,21.647529 -10.15705,21.647529 -12.83229,6.416145 -8.40052,9.591146 -10.84792,17.396357 z"
         id="path50" /></g></g></svg>
